<svg id="Layer_1" data-name="Layer 1" xmlns="http://www.w3.org/2000/svg" viewBox="0 0 651.05 651.05"><title>logo</title><circle cx="325.52" cy="325.52" r="318.02" style="fill:#f6f6f6;stroke:#17a2b8;stroke-miterlimit:10;stroke-width:15px"/><circle cx="325.52" cy="325.17" r="31.45" style="fill:#17a2b8"/><path d="M635.44,380.31c-11-9.19-26.5-17.31-44.88-23.68a105.74,105.74,0,0,0-11.31-3.53,61.54,61.54,0,0,0,1.77-7.77c8.83-42.4,2.47-75.62-16.25-86.57-9.19-5.3-21.91-5.3-36.4,0-13.43,4.95-28.27,14.13-42.76,26.86-2.83,2.47-6,5.3-8.83,8.13-2.12-1.77-3.89-3.53-6-5.3-32.51-29-64.31-39.93-83-29.33-9.19,5.3-15.55,16.25-18,31.45-2.47,14.13-1.77,31.45,2.12,50.53.71,3.89,1.77,7.77,2.47,11.66-4.59,1.41-8.83,2.47-13.07,4.24-38.52,13.43-61.13,33.57-61.13,54.77,0,11,6.36,22.26,18.37,32.51,11.31,9.54,27.21,18.37,46.29,24.74l9.54,3.18c-1.06,4.24-2.12,8.48-2.83,12.72-7.42,39.93-1.41,70,16.61,80.57a33.57,33.57,0,0,0,17,4.24c6,0,13.07-1.41,20.49-3.89,14.13-4.95,29.33-14.49,44.52-27.56,2.47-2.12,4.95-4.24,7.42-6.71,3.18,3.18,6.36,6,9.54,8.83,22.61,19.43,44.17,29.68,61.48,29.68a32.26,32.26,0,0,0,16.61-4.24c9.54-5.3,15.9-16.61,18.73-32.16,2.47-14.84,2.12-32.86-1.77-52.3L580,471.83c2.12-.71,4.24-1.41,6.71-2.12C628,455.93,653.46,434,653.46,412.47,653.46,401.16,647.1,390.21,635.44,380.31ZM533.67,272.89c10.25-3.53,18.37-3.89,23.68-1.06,10.25,5.65,17.31,30.39,8.83,70.32a68.72,68.72,0,0,1-1.77,7.07,323.62,323.62,0,0,0-47.35-7.42,332.6,332.6,0,0,0-29.68-37.1c2.47-2.47,5.3-4.95,8.13-7.42C508.94,285.61,522,277.13,533.67,272.89ZM525.9,440.38c-5.65,9.54-11.31,18.73-17,27.21-10.6.71-21.2,1.06-32.51,1.06-11,0-21.91-.35-32.16-1.06-6-8.83-12-18-17.31-27.21-5.3-9.54-10.6-19.08-15.19-28.62q6.89-14.31,14.84-28.62h0c5.3-9.54,11.31-18.73,17-27.21,10.6-.71,21.2-1.41,32.16-1.41a321.55,321.55,0,0,1,32.16,1.41c5.65,8.83,11.66,17.67,17,27.21,5.65,9.54,10.6,19.08,15.19,28.27A168.5,168.5,0,0,1,525.9,440.38Zm23.32-11a292.44,292.44,0,0,1,12,31.1,288.6,288.6,0,0,1-32.86,5.65c3.53-5.65,7.42-12,11-18C542.86,441.8,546,435.44,549.22,429.43Zm-72.09,79.86a310.9,310.9,0,0,1-21.2-25.44c6.71.35,13.78.35,20.49.35,7.07,0,14.49,0,21.55-.35A308.56,308.56,0,0,1,477.14,509.29Zm-51.59-43.11c-11.66-1.41-22.61-3.18-32.51-5.3,3.18-10.25,7.07-20.49,11.31-31.1,3.18,6,6.71,12.37,10.25,18.37S421.66,460.53,425.55,466.18Zm-11-90.11c-3.53,6-6.71,12.37-10.25,18.37-4.24-10.6-8.13-20.49-11.31-30.74,10.25-2.12,20.85-4.24,32.16-5.65C421.66,364.06,417.77,370.07,414.59,376.07Zm62.19-60.78a314,314,0,0,1,20.85,25.09c-7.07-.35-14.13-.35-21.2-.35s-13.78,0-20.49.35C462.65,331.55,469.72,323.07,476.78,315.3ZM539,375.72c-3.53-6-7.07-12-10.6-17.67a289.55,289.55,0,0,1,32.16,5.65,291.81,291.81,0,0,1-11.31,30.39C546,388.09,542.51,382.08,539,375.72Zm-152.3-37.46c-3.53-17-3.89-32.86-1.77-44.88,1.77-10.6,5.65-18,11-21.2,10.25-5.65,35,.35,65.37,27.56a67.84,67.84,0,0,1,5.3,4.95,360.94,360.94,0,0,0-30,37.1,323.62,323.62,0,0,0-47.35,7.42C388.09,345.33,387.38,341.8,386.68,338.26ZM369.36,454.52c-37.46-12.72-54.42-31.1-54.42-42.76,0-11.31,15.9-28.27,51.24-40.28,3.89-1.41,7.77-2.47,12-3.89,4.24,14.49,10.25,29.33,17.31,44.88A327.72,327.72,0,0,0,378.2,457.7C375.37,456.64,372.19,455.58,369.36,454.52Zm35.69,99.29c-3.89,0-7.07-.71-9.19-2.12-9.54-5.65-16.25-27.56-9.54-64.66.71-3.89,1.77-7.77,2.47-11.66a358.4,358.4,0,0,0,47.7,7.07,377.31,377.31,0,0,0,30.39,37.46c-2.12,2.12-4.59,4.24-6.71,6C437.21,546,417.42,553.81,405.05,553.81Zm162.19-70.32c7.77,38.87.35,62.9-9.89,68.55-9.54,5.65-32.16.35-60.42-24-2.83-2.47-6-5.3-8.83-8.13a352.73,352.73,0,0,0,29.68-37.81,314,314,0,0,0,47.7-7.42C566.18,477.84,566.89,480.67,567.24,483.49Zm14.49-29a29.85,29.85,0,0,1-6,1.77c-4.24-14.13-10.6-29-18-44.88A391.59,391.59,0,0,0,575,367.24l10.6,3.18c16.61,5.65,30.39,13.07,39.93,20.85,8.13,6.71,12.72,13.78,12.72,19.79C638.27,423.42,620.6,441.8,581.73,454.52Z" transform="translate(-151.26 -86.59)" style="fill:#17a2b8"/></svg>